<svg width="96" height="36" viewBox="0 0 96 36" fill="none" xmlns="http://www.w3.org/2000/svg">
<mask id="mask0_35_18" style="mask-type:alpha" maskUnits="userSpaceOnUse" x="0" y="0" width="36" height="36">
<rect width="36" height="36" fill="#D9D9D9"/>
</mask>
<g mask="url(#mask0_35_18)">
<path d="M8.7 27H26.025L29.4 9H21.075L8.7 27ZM3 30L19.5 6H33L28.5 30H3ZM21.75 21C22.8 21 23.6875 20.6375 24.4125 19.9125C25.1375 19.1875 25.5 18.3 25.5 17.25C25.5 16.2 25.1375 15.3125 24.4125 14.5875C23.6875 13.8625 22.8 13.5 21.75 13.5C20.7 13.5 19.8125 13.8625 19.0875 14.5875C18.3625 15.3125 18 16.2 18 17.25C18 18.3 18.3625 19.1875 19.0875 19.9125C19.8125 20.6375 20.7 21 21.75 21Z" fill="#588B8B"/>
</g>
<path d="M46.1442 25H43.1783L47.6974 11.9091H51.2642L55.777 25H52.8111L49.532 14.9006H49.4297L46.1442 25ZM45.9588 19.8544H52.9645V22.0149H45.9588V19.8544ZM61.0201 14.1911V11.9091H71.7715V14.1911H67.7637V25H65.0279V14.1911H61.0201ZM72.4714 25V15.1818H75.1113V16.8949H75.2136C75.3926 16.2855 75.693 15.8253 76.1149 15.5142C76.5368 15.1989 77.0225 15.0412 77.5723 15.0412C77.7086 15.0412 77.8556 15.0497 78.0133 15.0668C78.171 15.0838 78.3095 15.1072 78.4288 15.1371V17.5533C78.301 17.5149 78.1241 17.4808 77.8983 17.451C77.6724 17.4212 77.4657 17.4062 77.2782 17.4062C76.8777 17.4062 76.5197 17.4936 76.2044 17.6683C75.8933 17.8388 75.6461 18.0774 75.4629 18.3842C75.2839 18.6911 75.1944 19.0447 75.1944 19.4453V25H72.4714ZM79.8366 25V15.1818H82.5597V25H79.8366ZM81.2045 13.9162C80.7997 13.9162 80.4524 13.782 80.1626 13.5135C79.8771 13.2408 79.7344 12.9148 79.7344 12.5355C79.7344 12.1605 79.8771 11.8388 80.1626 11.5703C80.4524 11.2976 80.7997 11.1612 81.2045 11.1612C81.6094 11.1612 81.9545 11.2976 82.2401 11.5703C82.5298 11.8388 82.6747 12.1605 82.6747 12.5355C82.6747 12.9148 82.5298 13.2408 82.2401 13.5135C81.9545 13.782 81.6094 13.9162 81.2045 13.9162ZM84.7409 28.6818V15.1818H87.4256V16.831H87.5471C87.6664 16.5668 87.839 16.2983 88.0648 16.0256C88.2949 15.7486 88.5932 15.5185 88.9597 15.3352C89.3304 15.1477 89.7907 15.054 90.3404 15.054C91.0563 15.054 91.7168 15.2415 92.3219 15.6165C92.927 15.9872 93.4107 16.5476 93.7729 17.2976C94.1351 18.0433 94.3162 18.9787 94.3162 20.1037C94.3162 21.1989 94.1394 22.1236 93.7857 22.8778C93.4363 23.6278 92.959 24.1967 92.3539 24.5845C91.753 24.968 91.0797 25.1598 90.334 25.1598C89.8056 25.1598 89.356 25.0724 88.9853 24.8977C88.6188 24.723 88.3184 24.5036 88.084 24.2393C87.8496 23.9709 87.6706 23.7003 87.5471 23.4276H87.464V28.6818H84.7409ZM87.4064 20.0909C87.4064 20.6747 87.4874 21.1839 87.6493 21.6186C87.8113 22.0533 88.0456 22.392 88.3525 22.6349C88.6593 22.8736 89.0321 22.9929 89.4711 22.9929C89.9142 22.9929 90.2892 22.8714 90.5961 22.6286C90.9029 22.3814 91.1351 22.0405 91.2928 21.6058C91.4547 21.1669 91.5357 20.6619 91.5357 20.0909C91.5357 19.5241 91.4569 19.0256 91.2992 18.5952C91.1415 18.1648 90.9093 17.8281 90.6025 17.5852C90.2956 17.3423 89.9185 17.2209 89.4711 17.2209C89.0279 17.2209 88.6529 17.3381 88.3461 17.5724C88.0435 17.8068 87.8113 18.1392 87.6493 18.5696C87.4874 19 87.4064 19.5071 87.4064 20.0909Z" fill="#588B8B"/>
</svg>
